<?xml version="1.0" encoding="UTF-8"?>
<svg version="1.1" xmlns="http://www.w3.org/2000/svg" width="840" height="540">
<path d="M0 0 C277.2 0 554.4 0 840 0 C840 178.2 840 356.4 840 540 C562.8 540 285.6 540 0 540 C0 361.8 0 183.6 0 0 Z " fill="#F6F6F6" transform="translate(0,0)"/>
<path d="M0 0 C6.36778167 -0.127601 12.7352293 -0.21468406 19.10400391 -0.2746582 C21.26688965 -0.29968039 23.42969189 -0.33370909 25.59228516 -0.37719727 C28.71537981 -0.43839207 31.83734913 -0.46633343 34.9609375 -0.48828125 C35.91551849 -0.51408768 36.87009949 -0.5398941 37.85360718 -0.56648254 C44.83226972 -0.56934663 50.18125227 1.07732903 56 5 C61.09821177 10.37055011 61.48127695 16.55120879 61.39453125 23.6328125 C60.76095215 29.04019057 58.76298118 32.17743687 55 36 C47.17686376 41.70763079 39.10693042 41.69816976 29.76318359 41.59594727 C28.2476102 41.59785451 26.73203824 41.60201721 25.21647644 41.60824585 C21.97140848 41.61699215 18.72687769 41.61036946 15.48185349 41.59158516 C10.34556246 41.56234087 5.20972774 41.57032661 0.07339478 41.58348083 C-9.90026361 41.6040873 -19.87369787 41.58857485 -29.84734344 41.56800842 C-42.54956484 41.54281841 -55.25166182 41.53004928 -67.95388734 41.55796474 C-73.05490852 41.56789156 -78.15537606 41.55785485 -83.25633645 41.53205693 C-86.43289579 41.51985099 -89.60928384 41.52410484 -92.78584862 41.53263474 C-94.25316339 41.53316791 -95.72049978 41.52688272 -97.18774986 41.51309395 C-105.17298691 41.44172053 -111.25728693 41.47240655 -118 46 C-122.03236269 50.9396443 -122.63351521 55.08633605 -122.390625 61.41015625 C-121.68458654 66.09119124 -119.39807459 68.771389 -115.9375 71.8125 C-112.05069884 74.19473297 -108.74000138 74.12650541 -104.28125 74.12939453 C-103.60288086 74.13114685 -102.92451172 74.13289917 -102.22558594 74.13470459 C-99.98369792 74.13910504 -97.74188882 74.13619147 -95.5 74.1328125 C-93.94205714 74.13348606 -92.38411438 74.13445652 -90.82617188 74.13571167 C-87.56118774 74.13718619 -84.29623096 74.13504195 -81.03125 74.13037109 C-76.84466372 74.12467395 -72.65814155 74.12795426 -68.47155762 74.13394356 C-65.25455237 74.13755578 -62.03756234 74.13640753 -58.82055664 74.13381577 C-57.27677401 74.13314833 -55.73299 74.13396854 -54.18920898 74.13629532 C-52.03235205 74.13883265 -49.87559918 74.13496596 -47.71875 74.12939453 C-46.49091797 74.12859894 -45.26308594 74.12780334 -43.99804688 74.12698364 C-40.94788369 74.13584933 -40.94788369 74.13584933 -38 73 C-30.265597 72.00659044 -24.43968171 73.64576681 -18 78 C-13.94750108 81.52897035 -11.66004686 85.93248854 -10 91 C-10 93.64 -10 96.28 -10 99 C-3.73 99 2.54 99 9 99 C9.09052898 106.71933638 9.16384699 114.43847382 9.20724869 122.15821266 C9.22808423 125.74320901 9.25632651 129.32782194 9.30175781 132.91259766 C9.34536192 136.3750419 9.36916743 139.83711841 9.37950897 143.29981613 C9.39044821 145.25742482 9.42165128 147.21488648 9.45318604 149.17227173 C9.4556869 159.11195003 9.4556869 159.11195003 7.28808594 162.73193359 C3.16856999 166.81540598 -0.78349888 167.25150613 -6.43920898 167.2746582 C-7.72081406 167.28419022 -9.00241913 167.29372223 -10.32286072 167.30354309 C-11.71393868 167.30328164 -13.10501665 167.30234451 -14.49609375 167.30078125 C-15.93189111 167.30467153 -17.36768732 167.30900688 -18.80348206 167.31376648 C-21.80856054 167.32121529 -24.81352151 167.32094713 -27.81860352 167.31567383 C-31.65973293 167.30988012 -35.50038001 167.32681383 -39.34142971 167.3500185 C-42.3055144 167.36478686 -45.26948374 167.36562336 -48.23359871 167.36250877 C-49.64931252 167.3630204 -51.06503305 167.36822834 -52.48071098 167.37832069 C-54.46423503 167.39072699 -56.44785695 167.3819311 -58.43139648 167.37231445 C-59.55770981 167.37294388 -60.68402313 167.3735733 -61.84446716 167.3742218 C-66.61482501 166.80849424 -69.81636015 165.47357486 -72.85371399 161.69221497 C-74.18715253 158.56044579 -74.36204468 156.32374145 -74.34057617 152.92456055 C-74.34023628 151.12325935 -74.34023628 151.12325935 -74.33988953 149.28556824 C-74.31666374 147.35563774 -74.31666374 147.35563774 -74.29296875 145.38671875 C-74.28736869 144.04865495 -74.28310053 142.71058498 -74.28010559 141.37251282 C-74.26868892 137.86248588 -74.23924987 134.35283544 -74.20599365 130.84295654 C-74.17522371 127.25668428 -74.16158553 123.67035078 -74.14648438 120.08398438 C-74.11437647 113.05581998 -74.06163497 106.02796686 -74 99 C-67.73 99 -61.46 99 -55 99 C-55 96.03 -55 93.06 -55 90 C-54.1953125 87.44140625 -54.1953125 87.44140625 -53.125 85.5625 C-52.77695312 84.92441406 -52.42890625 84.28632813 -52.0703125 83.62890625 C-51 82 -51 82 -49 80 C-49.75453461 79.99857498 -50.50906921 79.99714996 -51.28646851 79.99568176 C-58.43574392 79.97777043 -65.58430652 79.93591899 -72.73326683 79.86790943 C-76.40770833 79.83377834 -80.08174021 79.80855136 -83.75634766 79.80444336 C-87.30994968 79.80013016 -90.8626299 79.77142232 -94.41594315 79.72656822 C-96.41525716 79.70746766 -98.41475789 79.71292111 -100.41415405 79.71894836 C-108.27727333 79.59444041 -114.47695873 78.62560548 -121 74 C-123.5 71 -123.5 71 -125 68 C-125.4125 67.2575 -125.825 66.515 -126.25 65.75 C-127.95882345 59.484314 -127.85978769 53.93209541 -124.8125 48.125 C-120.92752916 41.96113565 -116.0842412 38.72965898 -109 37 C-104.02956197 36.56822234 -99.06699802 36.60275363 -94.08203125 36.63110352 C-92.57660651 36.62863243 -91.0711835 36.6247909 -89.56576538 36.61968994 C-86.33662156 36.61138208 -83.10765429 36.61213372 -79.87850952 36.61987495 C-74.76763824 36.63150203 -69.65699194 36.61925901 -64.54614258 36.60325623 C-51.85462786 36.56713913 -39.16311909 36.56083142 -26.47155762 36.56335449 C-16.60043299 36.56506724 -6.72949331 36.55790752 3.14157963 36.52337593 C8.21745749 36.50661881 13.29288335 36.50834417 18.36875916 36.52419865 C21.53114419 36.53001037 24.69331651 36.5192295 27.8556633 36.50395203 C29.31651077 36.50023751 30.77739447 36.50329991 32.23820877 36.51382256 C40.21612982 36.56743976 46.24313977 36.47601922 53 32 C57.00715287 27.28523481 56.55054867 22.25906964 56.4140625 16.328125 C55.81346686 11.50069586 54.7674652 10.03035244 51 7 C45.58162575 3.54352309 40.79714116 3.53001708 34.5703125 3.48828125 C33.57998016 3.47033005 32.58964783 3.45237885 31.56930542 3.43388367 C28.42124629 3.37991099 25.27333767 3.34592644 22.125 3.3125 C19.98435412 3.27931546 17.84372806 3.24482475 15.703125 3.20898438 C10.46888499 3.12419222 5.23462519 3.05578735 0 3 C0 2.01 0 1.02 0 0 Z " fill="#151515" transform="translate(448,123)"/>
<path d="M0 0 C5.115 -0.061875 10.23 -0.12375 15.5 -0.1875 C17.89668945 -0.22846802 17.89668945 -0.22846802 20.34179688 -0.27026367 C35.97346924 -0.36180936 35.97346924 -0.36180936 42.05859375 4.71875 C42.74115234 5.60046875 42.74115234 5.60046875 43.4375 6.5 C43.91058594 7.0878125 44.38367188 7.675625 44.87109375 8.28125 C47.42603956 12.17113289 47.73372259 16.50196154 47 21 C45.35276253 24.5649169 43.59690657 28.20154671 40 30 C40.48210938 30.38671875 40.96421875 30.7734375 41.4609375 31.171875 C42.09257813 31.69265625 42.72421875 32.2134375 43.375 32.75 C44.00148438 33.26046875 44.62796875 33.7709375 45.2734375 34.296875 C47.89164909 36.87954526 48.87546698 38.92933946 49.30078125 42.5859375 C49.32399788 48.11149597 49.30253962 52.33089226 46 57 C40.33212618 62.36956467 35.25928176 63.2990653 27.63671875 63.1953125 C26.93405884 63.19329834 26.23139893 63.19128418 25.50744629 63.18920898 C22.90073043 63.17880181 20.29410816 63.15087943 17.6875 63.125 C8.9321875 63.063125 8.9321875 63.063125 0 63 C0 42.21 0 21.42 0 0 Z " fill="#151515" transform="translate(486,320)"/>
<path d="M0 0 C5.47853761 4.10890321 10.42306677 8.11049613 15.3125 12.8125 C20.49409513 17.72522353 25.73991721 22.40543038 31.33984375 26.83984375 C34.97679471 29.79319746 38.4741392 32.9148718 42 36 C42.33 24.45 42.66 12.9 43 1 C47.62 1 52.24 1 57 1 C57 22.45 57 43.9 57 66 C52.93859582 63.96929791 50.16571036 61.52799378 46.9375 58.4375 C42.04583122 53.83199832 37.0214065 49.50917834 31.77734375 45.3046875 C28.04994711 42.21162981 24.50345169 38.94059605 20.97045898 35.62866211 C18.71999074 33.52784332 16.57104964 31.71403309 14 30 C13.67 41.22 13.34 52.44 13 64 C8.71 64 4.42 64 0 64 C0 42.88 0 21.76 0 0 Z " fill="#151515" transform="translate(415,319)"/>
<path d="M0 0 C3.62266687 3.07724677 6.73782276 6.4334516 9.5390625 10.28515625 C4.9797718 13.32468338 1.06743831 15.28515625 -4.4609375 15.28515625 C-6.14967629 13.64085796 -7.81399265 11.97131407 -9.4609375 10.28515625 C-14.74278471 6.63816651 -20.24877317 6.23545535 -26.4609375 7.28515625 C-31.66622991 9.51599585 -36.38552547 12.9667319 -38.86328125 18.17578125 C-40.45763646 23.80291727 -40.63817986 29.48140589 -38.35546875 34.91796875 C-35.40226543 39.71593446 -32.00401089 43.7044319 -26.4609375 45.28515625 C-20.19919341 46.07015624 -14.79212399 45.96621359 -9.4609375 42.28515625 C-8.254375 40.92390625 -8.254375 40.92390625 -7.0234375 39.53515625 C-4.4609375 37.28515625 -4.4609375 37.28515625 -1.0859375 37.28515625 C2.69496757 38.32816454 5.99436817 39.62132014 9.5390625 41.28515625 C4.28547843 50.26002904 -2.67443053 55.05195857 -12.4609375 58.28515625 C-13.4509375 58.61515625 -14.4409375 58.94515625 -15.4609375 59.28515625 C-25.21135691 60.2154715 -33.95505587 58.29038293 -41.58203125 52.00390625 C-49.84329836 44.44682199 -54.41475833 36.75770217 -55.0859375 25.34765625 C-54.78780693 16.54133786 -50.23831216 8.75157559 -44.4609375 2.28515625 C-30.5321685 -8.35872695 -14.92293491 -10.39868004 0 0 Z " fill="#151515" transform="translate(234.4609375,325.71484375)"/>
<path d="M0 0 C4.62 0 9.24 0 14 0 C14.33 11.88 14.66 23.76 15 36 C22.53245074 27.1933955 22.53245074 27.1933955 25.5 21.375 C26.8828125 19.4296875 26.8828125 19.4296875 29 18 C34.41811217 17.32138953 39.57210606 17.53585705 45 18 C42.29117797 22.26120959 39.39756863 25.91964747 35.9375 29.625 C31.61797141 34.04266776 31.61797141 34.04266776 28 39 C28.66545887 43.49284872 31.46667801 46.45216799 34.25 49.875 C34.72824219 50.47441406 35.20648438 51.07382812 35.69921875 51.69140625 C37.59414333 54.05877815 39.49542673 56.4142272 41.47460938 58.71191406 C45 62.80663787 45 62.80663787 45 65 C32.72025723 66.93890675 32.72025723 66.93890675 28.20996094 63.72412109 C24.61575044 60.20942853 21.76367984 56.18286679 19 52 C16.3094472 53.22007944 16.3094472 53.22007944 14 55 C13.76636119 56.84891946 13.58696365 58.70488031 13.4375 60.5625 C13.293125 62.356875 13.14875 64.15125 13 66 C8.71 66 4.42 66 0 66 C0 44.22 0 22.44 0 0 Z " fill="#1C1C1C" transform="translate(360,318)"/>
<path d="M0 0 C4.95 0 9.9 0 15 0 C20.445 13.365 20.445 13.365 26 27 C27.91154063 24.13268906 28.97326363 21.6721882 30.1640625 18.45703125 C30.56367187 17.38388672 30.96328125 16.31074219 31.375 15.20507812 C31.99375 13.52575195 31.99375 13.52575195 32.625 11.8125 C33.25535156 10.11577148 33.25535156 10.11577148 33.8984375 8.38476562 C34.93573989 5.59112168 35.96832009 2.79572518 37 0 C41.95 0 46.9 0 52 0 C50.01887381 6.93161365 47.70000006 13.55660452 44.9453125 20.21484375 C44.5618869 21.15123184 44.1784613 22.08761993 43.78341675 23.05238342 C42.97712953 25.01882347 42.16859705 26.98434429 41.35791016 28.94897461 C40.1305081 31.92414859 38.91037532 34.90222174 37.69140625 37.88085938 C33.9511193 46.9979162 30.17954764 56.07404299 26 65 C21.38 65 16.76 65 12 65 C13.75289363 59.47838505 15.60028592 54.542367 18.5234375 49.53125 C20.1407375 40.94100082 11.87537901 28.48238607 8.375 20.6875 C7.33330451 18.36488525 6.29291004 16.04172963 5.25650024 13.7167511 C4.61527844 12.27847584 3.97102921 10.84154534 3.32333374 9.40617371 C1.91927051 6.25857745 0.83978748 3.35914991 0 0 Z " fill="#161616" transform="translate(598,336)"/>
<path d="M0 0 C0 14.85 0 29.7 0 45 C-22.25407925 45 -22.25407925 45 -28.98828125 39.32421875 C-33.98160973 33.15252367 -36.64522288 27.54638408 -36.33984375 19.484375 C-35.3574183 12.30250617 -31.4614258 8.03064233 -26.09765625 3.4453125 C-17.59485765 -2.41322657 -11.61990383 0 0 0 Z " fill="#131313" transform="translate(419,102)"/>
<path d="M0 0 C4.29 0 8.58 0 13 0 C13.01458252 0.94842773 13.02916504 1.89685547 13.04418945 2.87402344 C13.10532564 6.4004794 13.1794913 9.92616443 13.26245117 13.45214844 C13.2956588 14.9767834 13.32370378 16.50154006 13.34643555 18.02636719 C13.38005958 20.22122954 13.43237542 22.41498088 13.48828125 24.609375 C13.51446533 25.92905273 13.54064941 27.24873047 13.56762695 28.60839844 C14.01303322 32.10223461 14.50828566 33.56407881 17 36 C19.17125359 36.55611637 19.17125359 36.55611637 21.5 36.375 C22.2734375 36.36210937 23.046875 36.34921875 23.84375 36.3359375 C26.29113699 36.10924376 26.29113699 36.10924376 29 34 C30.16402727 30.50791819 30.21118508 27.60852228 30.31640625 23.92578125 C30.33718735 23.2419487 30.35796844 22.55811615 30.37937927 21.8535614 C30.44466154 19.6733079 30.50366017 17.49293595 30.5625 15.3125 C30.60570553 13.83267014 30.64932047 12.35285217 30.69335938 10.87304688 C30.80032083 7.24882378 30.90164823 3.62446811 31 0 C35.29 0 39.58 0 44 0 C44 15.51 44 31.02 44 47 C39.71 47 35.42 47 31 47 C30.67 46.34 30.34 45.68 30 45 C29.278125 45.495 28.55625 45.99 27.8125 46.5 C22.62522265 49.08744861 16.61825227 48.65760714 11 48 C8.33886075 46.97571244 7.14841206 45.97880059 5 44 C4.4225 43.566875 3.845 43.13375 3.25 42.6875 C-0.32668069 37.85898107 -0.27938058 31.64150662 -0.1953125 25.87890625 C-0.1924826 25.13414536 -0.18965271 24.38938446 -0.18673706 23.62205505 C-0.17563917 21.26869899 -0.1505551 18.91573891 -0.125 16.5625 C-0.11495672 14.95638575 -0.10583324 13.35026546 -0.09765625 11.74414062 C-0.07573407 7.82927704 -0.04127761 3.9147054 0 0 Z " fill="#151515" transform="translate(546,336)"/>
<path d="M0 0 C4.90806889 2.57767282 8.78988703 6.03762983 10.55859375 11.34375 C9.14895905 12.04555531 7.73051734 12.72968958 6.30859375 13.40625 C5.5196875 13.78910156 4.73078125 14.17195313 3.91796875 14.56640625 C1.26755666 15.43963805 0.12225973 15.36143086 -2.44140625 14.34375 C-3.46160198 13.3643621 -4.4629043 12.36479551 -5.44140625 11.34375 C-8.35227294 10.3734611 -10.3436431 10.17907153 -13.37890625 10.15625 C-14.66087891 10.13498047 -14.66087891 10.13498047 -15.96875 10.11328125 C-18.61967672 10.36036605 -20.20124877 10.92812942 -22.44140625 12.34375 C-25.20535964 16.76607542 -25.2540171 22.30717186 -24.44140625 27.34375 C-22.75576464 30.4643802 -20.65923146 32.7348374 -17.44140625 34.34375 C-11.09020086 35.11859706 -7.63478959 34.2387875 -2.44140625 30.34375 C1.0862402 28.98696291 2.99418449 29.35725212 6.37109375 30.78125 C7.42296875 31.296875 8.47484375 31.8125 9.55859375 32.34375 C8.91209881 37.64318743 6.8062263 39.49036772 2.80078125 42.76171875 C-3.17514123 46.97817973 -9.20695487 48.22027909 -16.44140625 47.34375 C-24.21846198 45.8706217 -30.15000605 41.90034161 -34.79296875 35.47265625 C-38.4470911 29.36054512 -39.49461268 23.32957126 -38.015625 16.328125 C-35.57872174 8.73335902 -30.5416268 3.2022654 -23.62890625 -0.65625 C-15.4289643 -4.31030268 -8.19216515 -3.25362587 0 0 Z " fill="#161616" transform="translate(340.44140625,337.65625)"/>
<path d="M0 0 C3.96 0 7.92 0 12 0 C12 21.12 12 42.24 12 64 C8.04 64 4.08 64 0 64 C0 42.88 0 21.76 0 0 Z " fill="#111111" transform="translate(253,319)"/>
<path d="M0 0 C4.29 0 8.58 0 13 0 C13 15.84 13 31.68 13 48 C8.71 48 4.42 48 0 48 C0 32.16 0 16.32 0 0 Z " fill="#1B1B1B" transform="translate(279,336)"/>
<path d="M0 0 C3.62519589 -0.05375085 7.2496019 -0.09355293 10.875 -0.125 C11.90753906 -0.14175781 12.94007813 -0.15851563 14.00390625 -0.17578125 C14.99003906 -0.18222656 15.97617187 -0.18867187 16.9921875 -0.1953125 C18.35899658 -0.21102295 18.35899658 -0.21102295 19.75341797 -0.22705078 C22 0 22 0 24 2 C24.22705078 3.97119141 24.22705078 3.97119141 24.1953125 6.3515625 C24.18886719 7.20234375 24.18242187 8.053125 24.17578125 8.9296875 C24.15902344 9.81914063 24.14226562 10.70859375 24.125 11.625 C24.11597656 12.5221875 24.10695313 13.419375 24.09765625 14.34375 C24.0740497 16.56276586 24.0411231 18.78125077 24 21 C17.84765625 21.09765625 17.84765625 21.09765625 16 21 C15.67 20.67 15.34 20.34 15 20 C12 19.83333333 12 19.83333333 9 20 C8.67 20.33 8.34 20.66 8 21 C5.36 21 2.72 21 0 21 C0 14.07 0 7.14 0 0 Z " fill="#151515" transform="translate(423,102)"/>
<path d="M0 0 C4.49700073 2.51930516 6.70710465 5.41420929 9 10 C9 12.97 9 15.94 9 19 C-0.9 19 -10.8 19 -21 19 C-21 9.66666667 -21 9.66666667 -17 4 C-12.12340662 -0.43326671 -6.34751079 -1.02906614 0 0 Z " fill="#ECECEC" transform="translate(421,204)"/>
<path d="M0 0 C2.64 0 5.28 0 8 0 C8.33 0.33 8.66 0.66 9 1 C11.53049402 1.07313567 14.03304837 1.09247527 16.5625 1.0625 C17.62887695 1.05573242 17.62887695 1.05573242 18.71679688 1.04882812 C20.47790013 1.03700864 22.23896036 1.01907263 24 1 C24.02888514 4.14581423 24.04675923 7.29159469 24.0625 10.4375 C24.07087891 11.33533203 24.07925781 12.23316406 24.08789062 13.15820312 C24.09272461 14.43920898 24.09272461 14.43920898 24.09765625 15.74609375 C24.10551147 16.93223267 24.10551147 16.93223267 24.11352539 18.14233398 C24 20 24 20 23 21 C21.29227642 21.08713831 19.58101351 21.10700007 17.87109375 21.09765625 C16.31938477 21.09282227 16.31938477 21.09282227 14.73632812 21.08789062 C13.64771484 21.07951172 12.55910156 21.07113281 11.4375 21.0625 C9.7987793 21.05573242 9.7987793 21.05573242 8.12695312 21.04882812 C5.41794568 21.0369984 2.7089662 21.01906231 0 21 C0 14.07 0 7.14 0 0 Z " fill="#151515" transform="translate(423,126)"/>
<path d="M0 0 C2.73083902 -0.13548815 5.45491807 -0.23429855 8.1875 -0.3125 C8.95642578 -0.35439453 9.72535156 -0.39628906 10.51757812 -0.43945312 C14.84862618 -0.53239407 16.47970358 -0.4070713 20.015625 2.359375 C22 5 22 5 22.5625 7.5625 C21.81770538 10.78994334 20.59418676 11.98229919 18 14 C12.43033461 15.99837531 5.7779319 15.05349937 0 15 C0 10.05 0 5.1 0 0 Z " fill="#EDEDED" transform="translate(500,357)"/>
<path d="M0 0 C2.22808159 -0.10853983 4.45769932 -0.18583307 6.6875 -0.25 C7.92886719 -0.29640625 9.17023438 -0.3428125 10.44921875 -0.390625 C14.58077905 0.06389208 16.20127396 0.96536602 19 4 C18.93113135 7.99438174 18.8685771 10.1314229 16 13 C13.25514407 13.14507695 10.61519457 13.18652423 7.875 13.125 C7.12089844 13.11597656 6.36679687 13.10695313 5.58984375 13.09765625 C3.72642746 13.0740687 1.86317407 13.03819719 0 13 C0 8.71 0 4.42 0 0 Z " fill="#F1F1F1" transform="translate(500,332)"/>
<path d="M0 0 C2.375 1.625 2.375 1.625 4 4 C4.61195145 7.6717087 4.48706506 9.28813568 2.375 12.375 C-0.71186432 14.48706506 -2.3282913 14.61195145 -6 14 C-8.375 12.375 -8.375 12.375 -10 10 C-10.61195145 6.3282913 -10.48706506 4.71186432 -8.375 1.625 C-5.28813568 -0.48706506 -3.6717087 -0.61195145 0 0 Z " fill="#191919" transform="translate(288,317)"/>
<path d="M0 0 C2.9375 0.8125 2.9375 0.8125 4.9375 2.8125 C5.26704432 5.91021665 5.39084601 7.98581023 3.875 10.75 C0.75607551 12.46037795 -1.71807801 11.61763863 -5.0625 10.8125 C-6.46185013 8.01379973 -6.31515405 5.90751208 -6.0625 2.8125 C-4.31169972 -0.20276715 -3.50175349 -0.21439307 0 0 Z " fill="#B8B8B8" transform="translate(270.0625,415.1875)"/>
<path d="M0 0 C2.00720923 0.28674418 4.0085944 0.61866701 6 1 C6 2.65 6 4.3 6 6 C5.34 6 4.68 6 4 6 C3.67 6.66 3.34 7.32 3 8 C2.34 7.67 1.68 7.34 1 7 C1 8.65 1 10.3 1 12 C0.34 12 -0.32 12 -1 12 C-1.02687279 10.18757948 -1.04633715 8.37504767 -1.0625 6.5625 C-1.07410156 5.55316406 -1.08570313 4.54382813 -1.09765625 3.50390625 C-1 1 -1 1 0 0 Z " fill="#8D8D8D" transform="translate(374,415)"/>
<path d="M0 0 C2.31 0.33 4.62 0.66 7 1 C7 2.65 7 4.3 7 6 C5.35 6 3.7 6 2 6 C2 7.65 2 9.3 2 11 C1.34 11 0.68 11 0 11 C0 7.37 0 3.74 0 0 Z " fill="#8F8F8F" transform="translate(285,415)"/>
<path d="M0 0 C2.31 0 4.62 0 7 0 C7 0.66 7 1.32 7 2 C5.35 2 3.7 2 2 2 C2 2.99 2 3.98 2 5 C3.65 5 5.3 5 7 5 C7 5.33 7 5.66 7 6 C5.35 6 3.7 6 2 6 C2 7.32 2 8.64 2 10 C3.65 10 5.3 10 7 10 C7 10.66 7 11.32 7 12 C4.69 12 2.38 12 0 12 C0 8.04 0 4.08 0 0 Z " fill="#7A7A7A" transform="translate(530,415)"/>
<path d="M0 0 C2 1 2 1 3.125 3.375 C4 6 4 6 4 9 C1.69 9 -0.62 9 -3 9 C-3.33 9.99 -3.66 10.98 -4 12 C-4.33 11.34 -4.66 10.68 -5 10 C-4.00390625 7.6171875 -4.00390625 7.6171875 -2.5625 4.875 C-1.85287109 3.50988281 -1.85287109 3.50988281 -1.12890625 2.1171875 C-0.75636719 1.41851562 -0.38382812 0.71984375 0 0 Z " fill="#8A8A8A" transform="translate(358,415)"/>
<path d="M0 0 C2.64 0 5.28 0 8 0 C8 0.66 8 1.32 8 2 C7.01 2 6.02 2 5 2 C5 5.3 5 8.6 5 12 C4.34 12 3.68 12 3 12 C3 8.7 3 5.4 3 2 C2.01 2 1.02 2 0 2 C0 1.34 0 0.68 0 0 Z " fill="#828282" transform="translate(390,415)"/>
<path d="M0 0 C0.66 0 1.32 0 2 0 C2 3.3 2 6.6 2 10 C3.65 10 5.3 10 7 10 C7 10.66 7 11.32 7 12 C4.69 12 2.38 12 0 12 C0 8.04 0 4.08 0 0 Z " fill="#878787" transform="translate(452,415)"/>
<path d="M0 0 C0.66 0 1.32 0 2 0 C2.33 2.31 2.66 4.62 3 7 C1.68 7 0.36 7 -1 7 C-1.04254356 5.00045254 -1.04080783 2.99958364 -1 1 C-0.67 0.67 -0.34 0.34 0 0 Z " fill="#B1B1B1" transform="translate(551,416)"/>
</svg>
