<?xml version="1.0" encoding="UTF-8"?>
<svg version="1.1" xmlns="http://www.w3.org/2000/svg" width="234" height="213">
<path d="M0 0 C77.22 0 154.44 0 234 0 C234 70.29 234 140.58 234 213 C156.78 213 79.56 213 0 213 C0 142.71 0 72.42 0 0 Z " fill="#F6F6F6" transform="translate(0,0)"/>
<path d="M0 0 C6.36778167 -0.127601 12.7352293 -0.21468406 19.10400391 -0.2746582 C21.26688965 -0.29968039 23.42969189 -0.33370909 25.59228516 -0.37719727 C28.71537981 -0.43839207 31.83734913 -0.46633343 34.9609375 -0.48828125 C35.91551849 -0.51408768 36.87009949 -0.5398941 37.85360718 -0.56648254 C44.83226972 -0.56934663 50.18125227 1.07732903 56 5 C61.09821177 10.37055011 61.48127695 16.55120879 61.39453125 23.6328125 C60.76095215 29.04019057 58.76298118 32.17743687 55 36 C47.17686376 41.70763079 39.10693042 41.69816976 29.76318359 41.59594727 C28.2476102 41.59785451 26.73203824 41.60201721 25.21647644 41.60824585 C21.97140848 41.61699215 18.72687769 41.61036946 15.48185349 41.59158516 C10.34556246 41.56234087 5.20972774 41.57032661 0.07339478 41.58348083 C-9.90026361 41.6040873 -19.87369787 41.58857485 -29.84734344 41.56800842 C-42.54956484 41.54281841 -55.25166182 41.53004928 -67.95388734 41.55796474 C-73.05490852 41.56789156 -78.15537606 41.55785485 -83.25633645 41.53205693 C-86.43289579 41.51985099 -89.60928384 41.52410484 -92.78584862 41.53263474 C-94.25316339 41.53316791 -95.72049978 41.52688272 -97.18774986 41.51309395 C-105.17298691 41.44172053 -111.25728693 41.47240655 -118 46 C-122.03236269 50.9396443 -122.63351521 55.08633605 -122.390625 61.41015625 C-121.68458654 66.09119124 -119.39807459 68.771389 -115.9375 71.8125 C-112.05069884 74.19473297 -108.74000138 74.12650541 -104.28125 74.12939453 C-103.60288086 74.13114685 -102.92451172 74.13289917 -102.22558594 74.13470459 C-99.98369792 74.13910504 -97.74188882 74.13619147 -95.5 74.1328125 C-93.94205714 74.13348606 -92.38411438 74.13445652 -90.82617188 74.13571167 C-87.56118774 74.13718619 -84.29623096 74.13504195 -81.03125 74.13037109 C-76.84466372 74.12467395 -72.65814155 74.12795426 -68.47155762 74.13394356 C-65.25455237 74.13755578 -62.03756234 74.13640753 -58.82055664 74.13381577 C-57.27677401 74.13314833 -55.73299 74.13396854 -54.18920898 74.13629532 C-52.03235205 74.13883265 -49.87559918 74.13496596 -47.71875 74.12939453 C-46.49091797 74.12859894 -45.26308594 74.12780334 -43.99804688 74.12698364 C-40.94788369 74.13584933 -40.94788369 74.13584933 -38 73 C-30.265597 72.00659044 -24.43968171 73.64576681 -18 78 C-13.94750108 81.52897035 -11.66004686 85.93248854 -10 91 C-10 93.64 -10 96.28 -10 99 C-3.73 99 2.54 99 9 99 C9.09052898 106.71933638 9.16384699 114.43847382 9.20724869 122.15821266 C9.22808423 125.74320901 9.25632651 129.32782194 9.30175781 132.91259766 C9.34536192 136.3750419 9.36916743 139.83711841 9.37950897 143.29981613 C9.39044821 145.25742482 9.42165128 147.21488648 9.45318604 149.17227173 C9.4556869 159.11195003 9.4556869 159.11195003 7.28808594 162.73193359 C3.16856999 166.81540598 -0.78349888 167.25150613 -6.43920898 167.2746582 C-7.72081406 167.28419022 -9.00241913 167.29372223 -10.32286072 167.30354309 C-11.71393868 167.30328164 -13.10501665 167.30234451 -14.49609375 167.30078125 C-15.93189111 167.30467153 -17.36768732 167.30900688 -18.80348206 167.31376648 C-21.80856054 167.32121529 -24.81352151 167.32094713 -27.81860352 167.31567383 C-31.65973293 167.30988012 -35.50038001 167.32681383 -39.34142971 167.3500185 C-42.3055144 167.36478686 -45.26948374 167.36562336 -48.23359871 167.36250877 C-49.64931252 167.3630204 -51.06503305 167.36822834 -52.48071098 167.37832069 C-54.46423503 167.39072699 -56.44785695 167.3819311 -58.43139648 167.37231445 C-59.55770981 167.37294388 -60.68402313 167.3735733 -61.84446716 167.3742218 C-66.61482501 166.80849424 -69.81636015 165.47357486 -72.85371399 161.69221497 C-74.18715253 158.56044579 -74.36204468 156.32374145 -74.34057617 152.92456055 C-74.34023628 151.12325935 -74.34023628 151.12325935 -74.33988953 149.28556824 C-74.31666374 147.35563774 -74.31666374 147.35563774 -74.29296875 145.38671875 C-74.28736869 144.04865495 -74.28310053 142.71058498 -74.28010559 141.37251282 C-74.26868892 137.86248588 -74.23924987 134.35283544 -74.20599365 130.84295654 C-74.17522371 127.25668428 -74.16158553 123.67035078 -74.14648438 120.08398438 C-74.11437647 113.05581998 -74.06163497 106.02796686 -74 99 C-67.73 99 -61.46 99 -55 99 C-55 96.03 -55 93.06 -55 90 C-54.1953125 87.44140625 -54.1953125 87.44140625 -53.125 85.5625 C-52.77695313 84.92441406 -52.42890625 84.28632812 -52.0703125 83.62890625 C-51 82 -51 82 -49 80 C-49.75453461 79.99857498 -50.50906921 79.99714996 -51.28646851 79.99568176 C-58.43574392 79.97777043 -65.58430652 79.93591899 -72.73326683 79.86790943 C-76.40770833 79.83377834 -80.08174021 79.80855136 -83.75634766 79.80444336 C-87.30994968 79.80013016 -90.8626299 79.77142232 -94.41594315 79.72656822 C-96.41525716 79.70746766 -98.41475789 79.71292111 -100.41415405 79.71894836 C-108.27727333 79.59444041 -114.47695873 78.62560548 -121 74 C-123.5 71 -123.5 71 -125 68 C-125.4125 67.2575 -125.825 66.515 -126.25 65.75 C-127.95882345 59.484314 -127.85978769 53.93209541 -124.8125 48.125 C-120.92752916 41.96113565 -116.0842412 38.72965898 -109 37 C-104.02956197 36.56822234 -99.06699802 36.60275363 -94.08203125 36.63110352 C-92.57660651 36.62863243 -91.0711835 36.6247909 -89.56576538 36.61968994 C-86.33662156 36.61138208 -83.10765429 36.61213372 -79.87850952 36.61987495 C-74.76763824 36.63150203 -69.65699194 36.61925901 -64.54614258 36.60325623 C-51.85462786 36.56713913 -39.16311909 36.56083142 -26.47155762 36.56335449 C-16.60043299 36.56506724 -6.72949331 36.55790752 3.14157963 36.52337593 C8.21745749 36.50661881 13.29288335 36.50834417 18.36875916 36.52419865 C21.53114419 36.53001037 24.69331651 36.5192295 27.8556633 36.50395203 C29.31651077 36.50023751 30.77739447 36.50329991 32.23820877 36.51382256 C40.21612982 36.56743976 46.24313977 36.47601922 53 32 C57.00715287 27.28523481 56.55054867 22.25906964 56.4140625 16.328125 C55.81346686 11.50069586 54.7674652 10.03035244 51 7 C45.58162575 3.54352309 40.79714116 3.53001708 34.5703125 3.48828125 C33.57998016 3.47033005 32.58964783 3.45237885 31.56930542 3.43388367 C28.42124629 3.37991099 25.27333767 3.34592644 22.125 3.3125 C19.98435412 3.27931546 17.84372806 3.24482475 15.703125 3.20898438 C10.46888499 3.12419222 5.23462519 3.05578735 0 3 C0 2.01 0 1.02 0 0 Z " fill="#151515" transform="translate(150,33)"/>
<path d="M0 0 C0 14.85 0 29.7 0 45 C-22.25407925 45 -22.25407925 45 -28.98828125 39.32421875 C-33.98160973 33.15252367 -36.64522288 27.54638408 -36.33984375 19.484375 C-35.3574183 12.30250617 -31.4614258 8.03064233 -26.09765625 3.4453125 C-17.59485765 -2.41322657 -11.61990383 0 0 0 Z " fill="#131313" transform="translate(121,12)"/>
<path d="M0 0 C3.62519589 -0.05375085 7.2496019 -0.09355293 10.875 -0.125 C11.90753906 -0.14175781 12.94007813 -0.15851562 14.00390625 -0.17578125 C14.99003906 -0.18222656 15.97617188 -0.18867188 16.9921875 -0.1953125 C18.35899658 -0.21102295 18.35899658 -0.21102295 19.75341797 -0.22705078 C22 0 22 0 24 2 C24.22705078 3.97119141 24.22705078 3.97119141 24.1953125 6.3515625 C24.18886719 7.20234375 24.18242187 8.053125 24.17578125 8.9296875 C24.15902344 9.81914062 24.14226562 10.70859375 24.125 11.625 C24.11597656 12.5221875 24.10695312 13.419375 24.09765625 14.34375 C24.0740497 16.56276586 24.0411231 18.78125077 24 21 C17.84765625 21.09765625 17.84765625 21.09765625 16 21 C15.67 20.67 15.34 20.34 15 20 C12 19.83333333 12 19.83333333 9 20 C8.67 20.33 8.34 20.66 8 21 C5.36 21 2.72 21 0 21 C0 14.07 0 7.14 0 0 Z " fill="#151515" transform="translate(125,12)"/>
<path d="M0 0 C4.49700073 2.51930516 6.70710465 5.41420929 9 10 C9 12.97 9 15.94 9 19 C-0.9 19 -10.8 19 -21 19 C-21 9.66666667 -21 9.66666667 -17 4 C-12.12340662 -0.43326671 -6.34751079 -1.02906614 0 0 Z " fill="#ECECEC" transform="translate(123,114)"/>
<path d="M0 0 C2.64 0 5.28 0 8 0 C8.33 0.33 8.66 0.66 9 1 C11.53049402 1.07313567 14.03304837 1.09247527 16.5625 1.0625 C17.62887695 1.05573242 17.62887695 1.05573242 18.71679688 1.04882812 C20.47790013 1.03700864 22.23896036 1.01907263 24 1 C24.02888514 4.14581423 24.04675923 7.29159469 24.0625 10.4375 C24.07087891 11.33533203 24.07925781 12.23316406 24.08789062 13.15820312 C24.09272461 14.43920898 24.09272461 14.43920898 24.09765625 15.74609375 C24.10551147 16.93223267 24.10551147 16.93223267 24.11352539 18.14233398 C24 20 24 20 23 21 C21.29227642 21.08713831 19.58101351 21.10700007 17.87109375 21.09765625 C16.31938477 21.09282227 16.31938477 21.09282227 14.73632812 21.08789062 C13.64771484 21.07951172 12.55910156 21.07113281 11.4375 21.0625 C9.7987793 21.05573242 9.7987793 21.05573242 8.12695312 21.04882812 C5.41794568 21.0369984 2.7089662 21.01906231 0 21 C0 14.07 0 7.14 0 0 Z " fill="#151515" transform="translate(125,36)"/>
</svg>
